STARTFONT 2.1
COMMENT $XConsortium: lutBS19.bdf,v 1.3 94/04/02 16:11:36 gildea Exp $
FONT -RFX-SereneTypewriter-Bold-R-Normal-Sans-19-190-75-75-M-110-iso10646-0400
SIZE 19 72 72
FONTBOUNDINGBOX 13 22 5 -4
STARTPROPERTIES 24
FONTNAME_REGISTRY ""
FOUNDRY "RFX"
FAMILY_NAME "SereneTypewriter"
WEIGHT_NAME "Bold"
SLANT "R"
SETWIDTH_NAME "Normal"
ADD_STYLE_NAME "Sans"
PIXEL_SIZE 19
POINT_SIZE 190
RESOLUTION_X 75
RESOLUTION_Y 75
SPACING "M"
AVERAGE_WIDTH "110"
CHARSET_REGISTRY "iso10646"
CHARSET_ENCODING "0400"
COPYRIGHT "Copyright Bigelow & Holmes 1986, 1985."
FONT_ASCENT 18
FONT_DESCENT 4
DEFAULT_CHAR 0
FACE_NAME "Lucida Sans Typewriter Bold"
COPYRIGHT2 "Cyrillic, line drawing and special glyphs copyright 1999 Dmitry Yu. Bolkhovityanov, bolkhov@inp.nsk.su"
SOURCEDATE "Mon Oct 25 23:01:29 1999"
PKGVERSION "1.1"
ASSEMBLER "cvtbdf.pl (Linux)"
ENDPROPERTIES
CHARS 295
STARTCHAR null
ENCODING 0
SWIDTH 602 0
DWIDTH 11 0
BBX 7 14 2 0
BITMAP
FE
FE
FE
FE
FE
FE
FE
FE
FE
FE
FE
FE
FE
FE
ENDCHAR
STARTCHAR ldcornsqlr
ENCODING 11
SWIDTH 602 0
DWIDTH 11 0
BBX 7 15 0 3
BITMAP
06
06
06
06
06
06
06
06
06
06
06
06
06
FE
FE
ENDCHAR
STARTCHAR ldcornsqur
ENCODING 12
SWIDTH 602 0
DWIDTH 11 0
BBX 7 9 0 -4
BITMAP
FE
FE
06
06
06
06
06
06
06
ENDCHAR
STARTCHAR ldcornsqul
ENCODING 13
SWIDTH 602 0
DWIDTH 11 0
BBX 6 9 5 -4
BITMAP
FC
FC
C0
C0
C0
C0
C0
C0
C0
ENDCHAR
STARTCHAR ldcornsqll
ENCODING 14
SWIDTH 602 0
DWIDTH 11 0
BBX 6 15 5 3
BITMAP
C0
C0
C0
C0
C0
C0
C0
C0
C0
C0
C0
C0
C0
FC
FC
ENDCHAR
STARTCHAR ldcross
ENCODING 15
SWIDTH 602 0
DWIDTH 11 0
BBX 11 22 0 -4
BITMAP
0600
0600
0600
0600
0600
0600
0600
0600
0600
0600
0600
0600
0600
FFE0
FFE0
0600
0600
0600
0600
0600
0600
0600
ENDCHAR
STARTCHAR ldhorizontal
ENCODING 18
SWIDTH 602 0
DWIDTH 11 0
BBX 11 2 0 3
BITMAP
FFE0
FFE0
ENDCHAR
STARTCHAR ldteelft
ENCODING 21
SWIDTH 602 0
DWIDTH 11 0
BBX 6 22 5 -4
BITMAP
C0
C0
C0
C0
C0
C0
C0
C0
C0
C0
C0
C0
C0
FC
FC
C0
C0
C0
C0
C0
C0
C0
ENDCHAR
STARTCHAR ldteert
ENCODING 22
SWIDTH 602 0
DWIDTH 11 0
BBX 7 22 0 -4
BITMAP
06
06
06
06
06
06
06
06
06
06
06
06
06
FE
FE
06
06
06
06
06
06
06
ENDCHAR
STARTCHAR ldteebt
ENCODING 23
SWIDTH 602 0
DWIDTH 11 0
BBX 11 15 0 3
BITMAP
0600
0600
0600
0600
0600
0600
0600
0600
0600
0600
0600
0600
0600
FFE0
FFE0
ENDCHAR
STARTCHAR ldteetp
ENCODING 24
SWIDTH 602 0
DWIDTH 11 0
BBX 11 9 0 -4
BITMAP
FFE0
FFE0
0600
0600
0600
0600
0600
0600
0600
ENDCHAR
STARTCHAR ldvertical
ENCODING 25
SWIDTH 602 0
DWIDTH 11 0
BBX 2 22 5 -4
BITMAP
C0
C0
C0
C0
C0
C0
C0
C0
C0
C0
C0
C0
C0
C0
C0
C0
C0
C0
C0
C0
C0
C0
ENDCHAR
STARTCHAR space
ENCODING 32
SWIDTH 602 0
DWIDTH 11 0
BBX 0 0 0 0
BITMAP
ENDCHAR
STARTCHAR exclam
ENCODING 33
SWIDTH 602 0
DWIDTH 11 0
BBX 3 14 4 0
BITMAP
E0
E0
E0
E0
E0
E0
C0
C0
C0
C0
00
00
E0
E0
ENDCHAR
STARTCHAR quotedbl
ENCODING 34
SWIDTH 602 0
DWIDTH 11 0
BBX 7 5 2 9
BITMAP
C6
C6
C6
C6
C6
ENDCHAR
STARTCHAR numbersign
ENCODING 35
SWIDTH 602 0
DWIDTH 11 0
BBX 10 14 1 0
BITMAP
0D80
0D80
1D80
1B80
7FC0
7FC0
3B00
3600
FF80
FF80
7600
6E00
6C00
6C00
ENDCHAR
STARTCHAR dollar
ENCODING 36
SWIDTH 602 0
DWIDTH 11 0
BBX 9 19 1 -3
BITMAP
0C00
0C00
3F00
7F00
E100
E000
F000
F800
7E00
1F00
0F80
0380
0380
8780
FF00
7F00
0C00
0C00
0C00
ENDCHAR
STARTCHAR percent
ENCODING 37
SWIDTH 602 0
DWIDTH 11 0
BBX 13 14 0 0
BITMAP
7830
FC60
CCE0
CCC0
CD80
FF80
7B00
06F0
0FF8
0D98
1998
3998
31F8
60F0
ENDCHAR
STARTCHAR ampersand
ENCODING 38
SWIDTH 602 0
DWIDTH 11 0
BBX 11 14 0 0
BITMAP
1E00
3F00
3F00
3F00
3F00
1E00
3CE0
7CE0
EEE0
EFC0
EFC0
F780
7F80
3FE0
ENDCHAR
STARTCHAR quotesingle
ENCODING 39
SWIDTH 602 0
DWIDTH 11 0
BBX 3 6 4 9
BITMAP
E0
E0
E0
60
E0
C0
ENDCHAR
STARTCHAR parenleft
ENCODING 40
SWIDTH 602 0
DWIDTH 11 0
BBX 8 18 3 -4
BITMAP
07
1F
3C
78
70
F0
E0
E0
E0
E0
E0
E0
70
70
38
1C
0F
03
ENDCHAR
STARTCHAR parenright
ENCODING 41
SWIDTH 602 0
DWIDTH 11 0
BBX 8 18 1 -4
BITMAP
C0
F0
38
1C
0E
0E
07
07
07
07
07
07
0E
0E
1C
3C
F0
C0
ENDCHAR
STARTCHAR asterisk
ENCODING 42
SWIDTH 602 0
DWIDTH 11 0
BBX 9 8 1 6
BITMAP
1C00
0800
C980
F780
0000
3600
7700
2200
ENDCHAR
STARTCHAR plus
ENCODING 43
SWIDTH 602 0
DWIDTH 11 0
BBX 10 10 1 0
BITMAP
0C00
0C00
0C00
0C00
FFC0
FFC0
0C00
0C00
0C00
0C00
ENDCHAR
STARTCHAR comma
ENCODING 44
SWIDTH 602 0
DWIDTH 11 0
BBX 3 8 4 -4
BITMAP
E0
E0
E0
E0
60
60
E0
C0
ENDCHAR
STARTCHAR minus
ENCODING 45
SWIDTH 602 0
DWIDTH 11 0
BBX 10 2 1 3
BITMAP
FFC0
FFC0
ENDCHAR
STARTCHAR period
ENCODING 46
SWIDTH 602 0
DWIDTH 11 0
BBX 3 3 4 0
BITMAP
E0
E0
E0
ENDCHAR
STARTCHAR slash
ENCODING 47
SWIDTH 602 0
DWIDTH 11 0
BBX 11 18 0 -4
BITMAP
00E0
00C0
01C0
0180
0180
0300
0300
0600
0600
0C00
0C00
1800
1800
3000
3000
6000
6000
C000
ENDCHAR
STARTCHAR zero
ENCODING 48
SWIDTH 602 0
DWIDTH 11 0
BBX 10 14 1 0
BITMAP
1E00
3F00
7380
6180
E1C0
E1C0
E1C0
E1C0
E1C0
E1C0
6180
7380
3F00
1E00
ENDCHAR
STARTCHAR one
ENCODING 49
SWIDTH 602 0
DWIDTH 11 0
BBX 9 14 2 0
BITMAP
FC00
FC00
1C00
1C00
1C00
1C00
1C00
1C00
1C00
1C00
1C00
1C00
FF80
FF80
ENDCHAR
STARTCHAR two
ENCODING 50
SWIDTH 602 0
DWIDTH 11 0
BBX 8 14 2 0
BITMAP
7C
FE
8F
07
07
07
0E
1C
38
30
60
E0
FF
FF
ENDCHAR
STARTCHAR three
ENCODING 51
SWIDTH 602 0
DWIDTH 11 0
BBX 8 14 2 0
BITMAP
7C
FE
8F
07
07
0E
78
7E
0F
07
07
8F
FE
FC
ENDCHAR
STARTCHAR four
ENCODING 52
SWIDTH 602 0
DWIDTH 11 0
BBX 10 14 1 0
BITMAP
0700
0F00
1F00
1F00
3700
7700
6700
FFC0
FFC0
FFC0
0700
0700
0700
0700
ENDCHAR
STARTCHAR five
ENCODING 53
SWIDTH 602 0
DWIDTH 11 0
BBX 7 14 3 0
BITMAP
FE
FE
C0
C0
C0
F0
FC
1C
0E
0E
0E
9E
FC
F8
ENDCHAR
STARTCHAR six
ENCODING 54
SWIDTH 602 0
DWIDTH 11 0
BBX 10 14 1 0
BITMAP
0F80
3F80
7880
7000
E000
EF00
FF80
F3C0
E1C0
E1C0
61C0
73C0
3F80
1F00
ENDCHAR
STARTCHAR seven
ENCODING 55
SWIDTH 602 0
DWIDTH 11 0
BBX 8 14 2 0
BITMAP
FF
FF
07
07
0E
0C
1C
18
38
30
30
70
70
70
ENDCHAR
STARTCHAR eight
ENCODING 56
SWIDTH 602 0
DWIDTH 11 0
BBX 9 14 1 0
BITMAP
1E00
3F00
7700
7700
7700
3E00
1E00
7F00
E780
E380
E380
F380
7F00
3E00
ENDCHAR
STARTCHAR nine
ENCODING 57
SWIDTH 602 0
DWIDTH 11 0
BBX 10 14 1 0
BITMAP
3E00
7F00
F380
E180
E1C0
E1C0
F3C0
7FC0
3DC0
01C0
0380
4780
7F00
7C00
ENDCHAR
STARTCHAR colon
ENCODING 58
SWIDTH 602 0
DWIDTH 11 0
BBX 3 10 4 0
BITMAP
E0
E0
E0
00
00
00
00
E0
E0
E0
ENDCHAR
STARTCHAR semicolon
ENCODING 59
SWIDTH 602 0
DWIDTH 11 0
BBX 3 14 4 -4
BITMAP
E0
E0
E0
00
00
00
00
E0
E0
E0
60
60
E0
C0
ENDCHAR
STARTCHAR less
ENCODING 60
SWIDTH 602 0
DWIDTH 11 0
BBX 10 10 1 0
BITMAP
0040
01C0
0780
1F00
FC00
7C00
1F00
07C0
01C0
0040
ENDCHAR
STARTCHAR equal
ENCODING 61
SWIDTH 602 0
DWIDTH 11 0
BBX 10 6 1 2
BITMAP
FFC0
FFC0
0000
0000
FFC0
FFC0
ENDCHAR
STARTCHAR greater
ENCODING 62
SWIDTH 602 0
DWIDTH 11 0
BBX 10 10 1 0
BITMAP
8000
E000
F800
3E00
0F80
0FC0
3E00
7800
E000
8000
ENDCHAR
STARTCHAR question
ENCODING 63
SWIDTH 602 0
DWIDTH 11 0
BBX 10 14 1 0
BITMAP
7F00
FF80
C3C0
C1C0
01C0
0380
0F00
1C00
3800
3800
0000
0000
3800
3800
ENDCHAR
STARTCHAR at
ENCODING 64
SWIDTH 602 0
DWIDTH 11 0
BBX 11 14 0 0
BITMAP
0F00
3F80
71C0
67C0
EFC0
DCC0
D8C0
D9C0
D9C0
DFE0
EEE0
7100
3F00
1E00
ENDCHAR
STARTCHAR A
ENCODING 65
SWIDTH 602 0
DWIDTH 11 0
BBX 11 14 0 0
BITMAP
0E00
0F00
0F00
1F00
1F00
1B80
3380
3380
33C0
7FC0
7FC0
61C0
C0E0
C0E0
ENDCHAR
STARTCHAR B
ENCODING 66
SWIDTH 602 0
DWIDTH 11 0
BBX 10 14 1 0
BITMAP
FF00
FF80
E380
E380
E380
E700
FE00
FF80
E3C0
E1C0
E1C0
E3C0
FF80
FF00
ENDCHAR
STARTCHAR C
ENCODING 67
SWIDTH 602 0
DWIDTH 11 0
BBX 11 14 0 0
BITMAP
0FE0
3FE0
7820
7000
E000
E000
E000
E000
E000
E000
7000
7820
3FE0
0FC0
ENDCHAR
STARTCHAR D
ENCODING 68
SWIDTH 602 0
DWIDTH 11 0
BBX 10 14 1 0
BITMAP
FE00
FF80
E380
E3C0
E1C0
E1C0
E1C0
E1C0
E1C0
E1C0
E380
E380
FF00
FE00
ENDCHAR
STARTCHAR E
ENCODING 69
SWIDTH 602 0
DWIDTH 11 0
BBX 9 14 2 0
BITMAP
FF80
FF80
E000
E000
E000
E000
FF00
FF00
E000
E000
E000
E000
FF80
FF80
ENDCHAR
STARTCHAR F
ENCODING 70
SWIDTH 602 0
DWIDTH 11 0
BBX 10 14 1 0
BITMAP
FFC0
FFC0
E000
E000
E000
E000
FF80
FF80
E000
E000
E000
E000
E000
E000
ENDCHAR
STARTCHAR G
ENCODING 71
SWIDTH 602 0
DWIDTH 11 0
BBX 11 14 0 0
BITMAP
0FE0
3FE0
7820
7000
E000
E000
E000
E0E0
E0E0
E0E0
70E0
78E0
3FE0
0FC0
ENDCHAR
STARTCHAR H
ENCODING 72
SWIDTH 602 0
DWIDTH 11 0
BBX 10 14 1 0
BITMAP
E1C0
E1C0
E1C0
E1C0
E1C0
E1C0
FFC0
FFC0
E1C0
E1C0
E1C0
E1C0
E1C0
E1C0
ENDCHAR
STARTCHAR I
ENCODING 73
SWIDTH 602 0
DWIDTH 11 0
BBX 9 14 1 0
BITMAP
FF80
FF80
1C00
1C00
1C00
1C00
1C00
1C00
1C00
1C00
1C00
1C00
FF80
FF80
ENDCHAR
STARTCHAR J
ENCODING 74
SWIDTH 602 0
DWIDTH 11 0
BBX 9 14 1 0
BITMAP
7F80
7F80
0380
0380
0380
0380
0380
0380
0380
0380
0380
8780
FF00
FE00
ENDCHAR
STARTCHAR K
ENCODING 75
SWIDTH 602 0
DWIDTH 11 0
BBX 10 14 1 0
BITMAP
E1C0
E380
E300
E600
EE00
EC00
FC00
FC00
FE00
EF00
E700
E780
E380
E3C0
ENDCHAR
STARTCHAR L
ENCODING 76
SWIDTH 602 0
DWIDTH 11 0
BBX 9 14 2 0
BITMAP
E000
E000
E000
E000
E000
E000
E000
E000
E000
E000
E000
E000
FF80
FF80
ENDCHAR
STARTCHAR M
ENCODING 77
SWIDTH 602 0
DWIDTH 11 0
BBX 10 14 1 0
BITMAP
E3C0
F3C0
F3C0
F3C0
F7C0
F7C0
F7C0
DFC0
DFC0
DDC0
DDC0
DDC0
DDC0
C1C0
ENDCHAR
STARTCHAR N
ENCODING 78
SWIDTH 602 0
DWIDTH 11 0
BBX 9 14 1 0
BITMAP
E180
F180
F180
F980
F980
FD80
DD80
DD80
CF80
CF80
C780
C780
C380
C380
ENDCHAR
STARTCHAR O
ENCODING 79
SWIDTH 602 0
DWIDTH 11 0
BBX 11 14 0 0
BITMAP
1F00
3F80
71C0
60C0
E0E0
E0E0
E0E0
E0E0
E0E0
E0E0
60C0
71C0
3F80
1F00
ENDCHAR
STARTCHAR P
ENCODING 80
SWIDTH 602 0
DWIDTH 11 0
BBX 10 14 1 0
BITMAP
FF00
FF80
E1C0
E1C0
E1C0
E1C0
E3C0
FF80
FF00
E000
E000
E000
E000
E000
ENDCHAR
STARTCHAR Q
ENCODING 81
SWIDTH 602 0
DWIDTH 11 0
BBX 12 17 0 -3
BITMAP
1F00
3F80
71C0
60C0
E0E0
E0E0
E0E0
E0E0
E0E0
E0E0
60E0
71C0
3F80
1F00
03F0
00E0
0040
ENDCHAR
STARTCHAR R
ENCODING 82
SWIDTH 602 0
DWIDTH 11 0
BBX 10 14 1 0
BITMAP
FE00
FF00
E380
E380
E380
E380
E700
FC00
FE00
EF00
E700
E780
E380
E1C0
ENDCHAR
STARTCHAR S
ENCODING 83
SWIDTH 602 0
DWIDTH 11 0
BBX 10 14 1 0
BITMAP
3F80
7F80
E080
E000
F000
FC00
3F00
1F80
07C0
01C0
01C0
83C0
FF80
FE00
ENDCHAR
STARTCHAR T
ENCODING 84
SWIDTH 602 0
DWIDTH 11 0
BBX 11 14 0 0
BITMAP
FFE0
FFE0
0E00
0E00
0E00
0E00
0E00
0E00
0E00
0E00
0E00
0E00
0E00
0E00
ENDCHAR
STARTCHAR U
ENCODING 85
SWIDTH 602 0
DWIDTH 11 0
BBX 9 14 1 0
BITMAP
E380
E380
E380
E380
E380
E380
E380
E380
E380
E380
E380
E380
7F00
3E00
ENDCHAR
STARTCHAR V
ENCODING 86
SWIDTH 602 0
DWIDTH 11 0
BBX 11 14 0 0
BITMAP
E060
E0E0
70C0
70C0
70C0
7980
3980
3980
3B00
1F00
1F00
1F00
1E00
0E00
ENDCHAR
STARTCHAR W
ENCODING 87
SWIDTH 602 0
DWIDTH 11 0
BBX 11 14 0 0
BITMAP
E060
EE60
EE60
EE60
6F40
7FC0
7FC0
7FC0
7FC0
7FC0
7BC0
7B80
3380
3380
ENDCHAR
STARTCHAR X
ENCODING 88
SWIDTH 602 0
DWIDTH 11 0
BBX 11 14 0 0
BITMAP
F0E0
70C0
7980
3B80
3F00
1F00
0E00
0F00
1F00
1F80
3380
73C0
61C0
E1E0
ENDCHAR
STARTCHAR Y
ENCODING 89
SWIDTH 602 0
DWIDTH 11 0
BBX 11 14 0 0
BITMAP
E060
70C0
70C0
3980
3980
1F00
1F00
0E00
0E00
0E00
0E00
0E00
0E00
0E00
ENDCHAR
STARTCHAR Z
ENCODING 90
SWIDTH 602 0
DWIDTH 11 0
BBX 10 14 1 0
BITMAP
FFC0
FFC0
03C0
0380
0700
0F00
0E00
1C00
3C00
3800
7800
F000
FFC0
FFC0
ENDCHAR
STARTCHAR bracketleft
ENCODING 91
SWIDTH 602 0
DWIDTH 11 0
BBX 8 18 3 -4
BITMAP
FF
FF
E0
E0
E0
E0
E0
E0
E0
E0
E0
E0
E0
E0
E0
E0
FF
FF
ENDCHAR
STARTCHAR backslash
ENCODING 92
SWIDTH 602 0
DWIDTH 11 0
BBX 11 18 0 -4
BITMAP
C000
6000
6000
3000
3000
1800
1800
0C00
0C00
0600
0600
0300
0300
0180
0180
00C0
00C0
0060
ENDCHAR
STARTCHAR bracketright
ENCODING 93
SWIDTH 602 0
DWIDTH 11 0
BBX 8 18 0 -4
BITMAP
FF
FF
07
07
07
07
07
07
07
07
07
07
07
07
07
07
FF
FF
ENDCHAR
STARTCHAR asciicircum
ENCODING 94
SWIDTH 602 0
DWIDTH 11 0
BBX 10 12 1 2
BITMAP
0400
0C00
0C00
0C00
1E00
1E00
3300
3300
3300
6180
6180
C0C0
ENDCHAR
STARTCHAR underscore
ENCODING 95
SWIDTH 602 0
DWIDTH 11 0
BBX 11 2 0 -3
BITMAP
FFE0
FFE0
ENDCHAR
STARTCHAR grave
ENCODING 96
SWIDTH 602 0
DWIDTH 11 0
BBX 3 6 4 9
BITMAP
60
E0
C0
E0
E0
E0
ENDCHAR
STARTCHAR a
ENCODING 97
SWIDTH 602 0
DWIDTH 11 0
BBX 10 10 1 0
BITMAP
3F00
7F80
4780
0380
3F80
FF80
E380
E380
FFC0
79C0
ENDCHAR
STARTCHAR b
ENCODING 98
SWIDTH 602 0
DWIDTH 11 0
BBX 10 14 1 0
BITMAP
E000
E000
E000
E000
EF00
EF80
FFC0
F3C0
E1C0
E1C0
E1C0
E380
FF80
FF00
ENDCHAR
STARTCHAR c
ENCODING 99
SWIDTH 602 0
DWIDTH 11 0
BBX 10 10 1 0
BITMAP
1FC0
7FC0
7040
E000
E000
E000
E000
7800
3FC0
1FC0
ENDCHAR
STARTCHAR d
ENCODING 100
SWIDTH 602 0
DWIDTH 11 0
BBX 10 14 1 0
BITMAP
01C0
01C0
01C0
01C0
3DC0
7FC0
71C0
E1C0
E1C0
E1C0
F3C0
FFC0
7FC0
3DC0
ENDCHAR
STARTCHAR e
ENCODING 101
SWIDTH 602 0
DWIDTH 11 0
BBX 10 10 1 0
BITMAP
1F00
7F80
7180
E1C0
FFC0
FFC0
E000
7040
7FC0
1F80
ENDCHAR
STARTCHAR f
ENCODING 102
SWIDTH 602 0
DWIDTH 11 0
BBX 10 14 2 0
BITMAP
0FC0
3FC0
3840
3800
FF80
FF80
3800
3800
3800
3800
3800
3800
3800
3800
ENDCHAR
STARTCHAR g
ENCODING 103
SWIDTH 602 0
DWIDTH 11 0
BBX 10 14 1 -4
BITMAP
3CC0
7FC0
F3C0
E1C0
E1C0
E1C0
F3C0
FFC0
7FC0
3DC0
01C0
4380
7F80
3E00
ENDCHAR
STARTCHAR h
ENCODING 104
SWIDTH 602 0
DWIDTH 11 0
BBX 9 14 1 0
BITMAP
E000
E000
E000
E000
EF00
FF80
FF80
F380
E380
E380
E380
E380
E380
E380
ENDCHAR
STARTCHAR i
ENCODING 105
SWIDTH 602 0
DWIDTH 11 0
BBX 7 14 2 0
BITMAP
0E
0E
0E
00
FE
FE
0E
0E
0E
0E
0E
0E
0E
0E
ENDCHAR
STARTCHAR j
ENCODING 106
SWIDTH 602 0
DWIDTH 11 0
BBX 8 18 1 -4
BITMAP
07
07
07
00
7F
7F
07
07
07
07
07
07
07
07
07
87
FE
FC
ENDCHAR
STARTCHAR k
ENCODING 107
SWIDTH 602 0
DWIDTH 11 0
BBX 10 14 1 0
BITMAP
E000
E000
E000
E000
E380
E700
E600
EC00
FC00
EE00
EF00
E700
E380
E3C0
ENDCHAR
STARTCHAR l
ENCODING 108
SWIDTH 602 0
DWIDTH 11 0
BBX 7 14 1 0
BITMAP
FE
FE
0E
0E
0E
0E
0E
0E
0E
0E
0E
0E
0E
0E
ENDCHAR
STARTCHAR m
ENCODING 109
SWIDTH 602 0
DWIDTH 11 0
BBX 11 10 0 0
BITMAP
ECE0
FFE0
FFE0
EEE0
EEE0
EEE0
EEE0
EEE0
EEE0
EEE0
ENDCHAR
STARTCHAR n
ENCODING 110
SWIDTH 602 0
DWIDTH 11 0
BBX 9 10 1 0
BITMAP
EF00
FF80
FF80
F380
E380
E380
E380
E380
E380
E380
ENDCHAR
STARTCHAR o
ENCODING 111
SWIDTH 602 0
DWIDTH 11 0
BBX 11 10 0 0
BITMAP
1F00
7FC0
71C0
E0E0
E0E0
E0E0
E0E0
71C0
7FC0
1F00
ENDCHAR
STARTCHAR p
ENCODING 112
SWIDTH 602 0
DWIDTH 11 0
BBX 10 14 1 -4
BITMAP
EF00
FF80
FFC0
F3C0
E1C0
E1C0
E1C0
E380
FF80
EF00
E000
E000
E000
E000
ENDCHAR
STARTCHAR q
ENCODING 113
SWIDTH 602 0
DWIDTH 11 0
BBX 10 14 1 -4
BITMAP
3FC0
7FC0
71C0
E1C0
E1C0
E1C0
F3C0
FFC0
7DC0
3DC0
01C0
01C0
01C0
01C0
ENDCHAR
STARTCHAR r
ENCODING 114
SWIDTH 602 0
DWIDTH 11 0
BBX 9 10 2 0
BITMAP
E780
FF80
FF80
F180
E000
E000
E000
E000
E000
E000
ENDCHAR
STARTCHAR s
ENCODING 115
SWIDTH 602 0
DWIDTH 11 0
BBX 9 10 1 0
BITMAP
3F00
7F00
E100
F800
FF00
3F80
0780
8380
FF00
7E00
ENDCHAR
STARTCHAR t
ENCODING 116
SWIDTH 602 0
DWIDTH 11 0
BBX 9 13 1 0
BITMAP
3800
3800
3800
FF80
FF80
3800
3800
3800
3800
3800
3800
1F80
0F80
ENDCHAR
STARTCHAR u
ENCODING 117
SWIDTH 602 0
DWIDTH 11 0
BBX 9 10 1 0
BITMAP
E380
E380
E380
E380
E380
E380
E780
FF80
FF80
7B80
ENDCHAR
STARTCHAR v
ENCODING 118
SWIDTH 602 0
DWIDTH 11 0
BBX 11 10 0 0
BITMAP
E060
F0C0
70C0
79C0
3980
3980
1F00
1F00
1F00
0E00
ENDCHAR
STARTCHAR w
ENCODING 119
SWIDTH 602 0
DWIDTH 11 0
BBX 11 10 0 0
BITMAP
E060
EE60
EE60
6F40
7FC0
7FC0
7BC0
7BC0
79C0
3180
ENDCHAR
STARTCHAR x
ENCODING 120
SWIDTH 602 0
DWIDTH 11 0
BBX 10 10 1 0
BITMAP
F1C0
7B80
3B00
3E00
1E00
1E00
3F00
3780
6380
E3C0
ENDCHAR
STARTCHAR y
ENCODING 121
SWIDTH 602 0
DWIDTH 11 0
BBX 11 14 0 -4
BITMAP
E060
70C0
70C0
3980
3980
3F80
1F00
1F00
0E00
0E00
0C00
0C00
7800
7000
ENDCHAR
STARTCHAR z
ENCODING 122
SWIDTH 602 0
DWIDTH 11 0
BBX 9 10 1 0
BITMAP
FF80
FF80
0780
0F00
1E00
3C00
7800
F000
FF80
FF80
ENDCHAR
STARTCHAR braceleft
ENCODING 123
SWIDTH 602 0
DWIDTH 11 0
BBX 8 18 2 -4
BITMAP
0F
1F
1C
1C
1C
1C
1C
1C
F0
F0
1C
1C
1C
1C
1C
1C
1F
0F
ENDCHAR
STARTCHAR bar
ENCODING 124
SWIDTH 602 0
DWIDTH 11 0
BBX 2 18 5 -4
BITMAP
C0
C0
C0
C0
C0
C0
C0
C0
C0
C0
C0
C0
C0
C0
C0
C0
C0
C0
ENDCHAR
STARTCHAR braceright
ENCODING 125
SWIDTH 602 0
DWIDTH 11 0
BBX 8 18 1 -4
BITMAP
F8
FC
1C
1C
3C
38
38
38
0F
0F
38
38
38
38
1C
1C
FC
F8
ENDCHAR
STARTCHAR asciitilde
ENCODING 126
SWIDTH 602 0
DWIDTH 11 0
BBX 10 4 1 3
BITMAP
70C0
7CC0
CF80
C380
ENDCHAR
STARTCHAR space
ENCODING 160
SWIDTH 602 0
DWIDTH 11 0
BBX 0 0 0 0
BITMAP
ENDCHAR
STARTCHAR exclamdown
ENCODING 161
SWIDTH 602 0
DWIDTH 11 0
BBX 3 14 4 -4
BITMAP
E0
E0
E0
00
C0
C0
C0
C0
E0
E0
E0
E0
E0
E0
ENDCHAR
STARTCHAR cent
ENCODING 162
SWIDTH 602 0
DWIDTH 11 0
BBX 8 14 2 0
BITMAP
0C
0C
3F
7F
70
E0
E0
E0
E0
70
7F
1F
0C
0C
ENDCHAR
STARTCHAR sterling
ENCODING 163
SWIDTH 602 0
DWIDTH 11 0
BBX 8 14 2 0
BITMAP
1F
3F
38
38
38
38
FC
FC
38
38
38
30
FF
FF
ENDCHAR
STARTCHAR currency
ENCODING 164
SWIDTH 602 0
DWIDTH 11 0
BBX 11 12 0 1
BITMAP
4040
FFE0
7FC0
7180
60C0
60C0
60C0
60C0
7180
7FC0
FFE0
4040
ENDCHAR
STARTCHAR yen
ENCODING 165
SWIDTH 602 0
DWIDTH 11 0
BBX 11 14 0 0
BITMAP
F060
70C0
7980
3F80
1F00
1E00
3F80
3F80
0E00
3F80
3F80
0E00
0E00
0E00
ENDCHAR
STARTCHAR brokenbar
ENCODING 166
SWIDTH 602 0
DWIDTH 11 0
BBX 2 18 5 -4
BITMAP
C0
C0
C0
C0
C0
C0
C0
00
00
00
00
C0
C0
C0
C0
C0
C0
C0
ENDCHAR
STARTCHAR section
ENCODING 167
SWIDTH 602 0
DWIDTH 11 0
BBX 8 18 2 -4
BITMAP
3E
7E
E2
E0
F0
78
7E
C7
C3
E3
FB
7E
3E
0F
07
87
FE
FC
ENDCHAR
STARTCHAR dieresis
ENCODING 168
SWIDTH 602 0
DWIDTH 11 0
BBX 5 2 3 12
BITMAP
D8
D8
ENDCHAR
STARTCHAR copyright
ENCODING 169
SWIDTH 602 0
DWIDTH 11 0
BBX 10 14 1 0
BITMAP
1E00
3F00
6180
DCC0
DEC0
F2C0
F0C0
F0C0
F2C0
DEC0
DCC0
6180
3F00
1E00
ENDCHAR
STARTCHAR ordfeminine
ENCODING 170
SWIDTH 602 0
DWIDTH 11 0
BBX 9 8 1 6
BITMAP
7E00
FF00
8300
7F00
FF00
C300
FF80
7B80
ENDCHAR
STARTCHAR guillemotleft
ENCODING 171
SWIDTH 602 0
DWIDTH 11 0
BBX 10 8 1 1
BITMAP
0880
19C0
3380
7700
F700
7380
39C0
1880
ENDCHAR
STARTCHAR logicalnot
ENCODING 172
SWIDTH 602 0
DWIDTH 11 0
BBX 10 4 1 2
BITMAP
FFC0
FFC0
00C0
00C0
ENDCHAR
STARTCHAR hyphen
ENCODING 173
SWIDTH 602 0
DWIDTH 11 0
BBX 8 2 2 5
BITMAP
FF
FF
ENDCHAR
STARTCHAR registered
ENCODING 174
SWIDTH 602 0
DWIDTH 11 0
BBX 10 10 1 4
BITMAP
1E00
7F00
6180
DFC0
DBC0
DEC0
DEC0
7B80
7F00
1E00
ENDCHAR
STARTCHAR macron
ENCODING 175
SWIDTH 602 0
DWIDTH 11 0
BBX 5 2 3 12
BITMAP
F8
F8
ENDCHAR
STARTCHAR degree
ENCODING 176
SWIDTH 602 0
DWIDTH 11 0
BBX 3 4 4 10
BITMAP
E0
A0
A0
40
ENDCHAR
STARTCHAR plusminus
ENCODING 177
SWIDTH 602 0
DWIDTH 11 0
BBX 10 10 1 0
BITMAP
0C00
0C00
FFC0
FFC0
0C00
0C00
0C00
0000
FFC0
FFC0
ENDCHAR
STARTCHAR twosuperior
ENCODING 178
SWIDTH 602 0
DWIDTH 11 0
BBX 4 7 -2 7
BITMAP
E0
10
10
20
60
C0
F0
ENDCHAR
STARTCHAR threesuperior
ENCODING 179
SWIDTH 602 0
DWIDTH 11 0
BBX 3 7 -2 7
BITMAP
E0
20
20
C0
20
20
C0
ENDCHAR
STARTCHAR acute
ENCODING 180
SWIDTH 602 0
DWIDTH 11 0
BBX 5 3 3 11
BITMAP
38
70
E0
ENDCHAR
STARTCHAR mu
ENCODING 181
SWIDTH 602 0
DWIDTH 11 0
BBX 9 14 1 -4
BITMAP
E380
E380
E380
E380
E380
E380
E780
FF80
FF80
FB80
E000
E000
E000
E000
ENDCHAR
STARTCHAR paragraph
ENCODING 182
SWIDTH 602 0
DWIDTH 11 0
BBX 7 18 2 -4
BITMAP
7E
FE
FE
FE
FE
FE
7E
1E
1E
1E
1E
1E
1E
1E
1E
1E
1E
1E
ENDCHAR
STARTCHAR periodcentered
ENCODING 183
SWIDTH 602 0
DWIDTH 11 0
BBX 3 3 4 3
BITMAP
E0
E0
E0
ENDCHAR
STARTCHAR cedilla
ENCODING 184
SWIDTH 602 0
DWIDTH 11 0
BBX 4 4 4 -4
BITMAP
60
F0
30
E0
ENDCHAR
STARTCHAR onesuperior
ENCODING 185
SWIDTH 602 0
DWIDTH 11 0
BBX 3 7 -2 7
BITMAP
C0
40
40
40
40
40
E0
ENDCHAR
STARTCHAR ordmasculine
ENCODING 186
SWIDTH 602 0
DWIDTH 11 0
BBX 8 8 2 6
BITMAP
3C
7E
E7
C3
C3
E7
7E
3C
ENDCHAR
STARTCHAR guillemotright
ENCODING 187
SWIDTH 602 0
DWIDTH 11 0
BBX 10 8 1 1
BITMAP
4600
E700
7380
3BC0
3B80
7300
E600
4400
ENDCHAR
STARTCHAR onequarter
ENCODING 188
SWIDTH 602 0
DWIDTH 11 0
BBX 11 14 2 0
BITMAP
C060
40C0
41C0
4180
4300
4700
E600
0CC0
1CC0
1940
3240
73E0
6040
C040
ENDCHAR
STARTCHAR onehalf
ENCODING 189
SWIDTH 602 0
DWIDTH 11 0
BBX 11 14 2 0
BITMAP
C060
40C0
41C0
4180
4300
4700
E600
0DC0
1C20
1820
3040
70C0
6180
C1E0
ENDCHAR
STARTCHAR threequarters
ENCODING 190
SWIDTH 602 0
DWIDTH 11 0
BBX 11 14 2 0
BITMAP
E060
20C0
21C0
C180
2300
2700
C600
0CC0
1CC0
1940
3240
73E0
6040
C040
ENDCHAR
STARTCHAR questiondown
ENCODING 191
SWIDTH 602 0
DWIDTH 11 0
BBX 10 14 0 -4
BITMAP
0700
0700
0700
0000
0700
0700
0E00
3C00
7000
E000
E0C0
F0C0
7FC0
3F80
ENDCHAR
STARTCHAR Agrave
ENCODING 192
SWIDTH 602 0
DWIDTH 11 0
BBX 11 18 0 0
BITMAP
1c00
0e00
0700
0000
0e00
0f00
0f00
1f00
1f00
1b80
3380
3380
33c0
7fc0
7fc0
61c0
c0e0
c0e0
ENDCHAR
STARTCHAR Aacute
ENCODING 193
SWIDTH 602 0
DWIDTH 11 0
BBX 11 18 0 0
BITMAP
0700
0e00
1c00
0000
0e00
0f00
0f00
1f00
1f00
1b80
3380
3380
33c0
7fc0
7fc0
61c0
c0e0
c0e0
ENDCHAR
STARTCHAR Acircumflex
ENCODING 194
SWIDTH 602 0
DWIDTH 11 0
BBX 11 18 0 0
BITMAP
0c00
1e00
3300
0000
0e00
0f00
0f00
1f00
1f00
1b80
3380
3380
33c0
7fc0
7fc0
61c0
c0e0
c0e0
ENDCHAR
STARTCHAR Atilde
ENCODING 195
SWIDTH 602 0
DWIDTH 11 0
BBX 11 18 0 0
BITMAP
0d80
1f80
1b00
0000
0e00
0f00
0f00
1f00
1f00
1b80
3380
3380
33c0
7fc0
7fc0
61c0
c0e0
c0e0
ENDCHAR
STARTCHAR Adieresis
ENCODING 196
SWIDTH 602 0
DWIDTH 11 0
BBX 11 17 0 0
BITMAP
1b00
1b00
0000
0e00
0f00
0f00
1f00
1f00
1b80
3380
3380
33c0
7fc0
7fc0
61c0
c0e0
c0e0
ENDCHAR
STARTCHAR Aring
ENCODING 197
SWIDTH 602 0
DWIDTH 11 0
BBX 11 18 0 0
BITMAP
0e00
0a00
0e00
0000
0e00
0f00
0f00
1f00
1f00
1b80
3380
3380
33c0
7fc0
7fc0
61c0
c0e0
c0e0
ENDCHAR
STARTCHAR AE
ENCODING 198
SWIDTH 602 0
DWIDTH 11 0
BBX 12 14 0 0
BITMAP
07f0
07f0
0780
0f80
0f80
1f80
1bf0
3bf0
3380
3f80
7f80
6380
e3f0
c3f0
ENDCHAR
STARTCHAR Ccedilla
ENCODING 199
SWIDTH 602 0
DWIDTH 11 0
BBX 11 18 0 -4
BITMAP
0fe0
3fe0
7820
7000
e000
e000
e000
e000
e000
e000
7000
7820
3fe0
0fc0
0400
0f00
0300
0e00
ENDCHAR
STARTCHAR Egrave
ENCODING 200
SWIDTH 602 0
DWIDTH 11 0
BBX 9 18 2 0
BITMAP
3800
1c00
0e00
0000
ff80
ff80
e000
e000
e000
e000
ff00
ff00
e000
e000
e000
e000
ff80
ff80
ENDCHAR
STARTCHAR Eacute
ENCODING 201
SWIDTH 602 0
DWIDTH 11 0
BBX 9 18 2 0
BITMAP
0e00
1c00
3800
0000
ff80
ff80
e000
e000
e000
e000
ff00
ff00
e000
e000
e000
e000
ff80
ff80
ENDCHAR
STARTCHAR Ecircumflex
ENCODING 202
SWIDTH 602 0
DWIDTH 11 0
BBX 9 18 2 0
BITMAP
0c00
1e00
3300
0000
ff80
ff80
e000
e000
e000
e000
ff00
ff00
e000
e000
e000
e000
ff80
ff80
ENDCHAR
STARTCHAR Edieresis
ENCODING 203
SWIDTH 602 0
DWIDTH 11 0
BBX 9 17 2 0
BITMAP
3600
3600
0000
ff80
ff80
e000
e000
e000
e000
ff00
ff00
e000
e000
e000
e000
ff80
ff80
ENDCHAR
STARTCHAR Igrave
ENCODING 204
SWIDTH 602 0
DWIDTH 11 0
BBX 9 18 1 0
BITMAP
3800
1c00
0e00
0000
ff80
ff80
1c00
1c00
1c00
1c00
1c00
1c00
1c00
1c00
1c00
1c00
ff80
ff80
ENDCHAR
STARTCHAR Iacute
ENCODING 205
SWIDTH 602 0
DWIDTH 11 0
BBX 9 18 1 0
BITMAP
0e00
1c00
3800
0000
ff80
ff80
1c00
1c00
1c00
1c00
1c00
1c00
1c00
1c00
1c00
1c00
ff80
ff80
ENDCHAR
STARTCHAR Icircumflex
ENCODING 206
SWIDTH 602 0
DWIDTH 11 0
BBX 9 18 1 0
BITMAP
1800
3c00
6600
0000
ff80
ff80
1c00
1c00
1c00
1c00
1c00
1c00
1c00
1c00
1c00
1c00
ff80
ff80
ENDCHAR
STARTCHAR Idieresis
ENCODING 207
SWIDTH 602 0
DWIDTH 11 0
BBX 9 17 1 0
BITMAP
3600
3600
0000
ff80
ff80
1c00
1c00
1c00
1c00
1c00
1c00
1c00
1c00
1c00
1c00
ff80
ff80
ENDCHAR
STARTCHAR Eth
ENCODING 208
SWIDTH 602 0
DWIDTH 11 0
BBX 11 14 0 0
BITMAP
7f00
7fc0
71c0
71e0
70e0
70e0
fce0
fce0
70e0
70e0
71c0
71c0
7f80
7f00
ENDCHAR
STARTCHAR Ntilde
ENCODING 209
SWIDTH 602 0
DWIDTH 11 0
BBX 9 18 1 0
BITMAP
1b00
3f00
3600
0000
e180
f180
f180
f980
f980
fd80
dd80
dd80
cf80
cf80
c780
c780
c380
c380
ENDCHAR
STARTCHAR Ograve
ENCODING 210
SWIDTH 602 0
DWIDTH 11 0
BBX 11 18 0 0
BITMAP
1c00
0e00
0700
0000
1f00
3f80
71c0
60c0
e0e0
e0e0
e0e0
e0e0
e0e0
e0e0
60c0
71c0
3f80
1f00
ENDCHAR
STARTCHAR Oacute
ENCODING 211
SWIDTH 602 0
DWIDTH 11 0
BBX 11 18 0 0
BITMAP
0700
0e00
1c00
0000
1f00
3f80
71c0
60c0
e0e0
e0e0
e0e0
e0e0
e0e0
e0e0
60c0
71c0
3f80
1f00
ENDCHAR
STARTCHAR Ocircumflex
ENCODING 212
SWIDTH 602 0
DWIDTH 11 0
BBX 11 18 0 0
BITMAP
0c00
1e00
3300
0000
1f00
3f80
71c0
60c0
e0e0
e0e0
e0e0
e0e0
e0e0
e0e0
60c0
71c0
3f80
1f00
ENDCHAR
STARTCHAR Otilde
ENCODING 213
SWIDTH 602 0
DWIDTH 11 0
BBX 11 18 0 0
BITMAP
1b00
3f00
3600
0000
1f00
3f80
71c0
60c0
e0e0
e0e0
e0e0
e0e0
e0e0
e0e0
60c0
71c0
3f80
1f00
ENDCHAR
STARTCHAR Odieresis
ENCODING 214
SWIDTH 602 0
DWIDTH 11 0
BBX 11 17 0 0
BITMAP
1b00
1b00
0000
1f00
3f80
71c0
60c0
e0e0
e0e0
e0e0
e0e0
e0e0
e0e0
60c0
71c0
3f80
1f00
ENDCHAR
STARTCHAR multiply
ENCODING 215
SWIDTH 602 0
DWIDTH 11 0
BBX 10 10 1 0
BITMAP
4080
e1c0
7380
3f00
1e00
1e00
3f00
7380
e1c0
4080
ENDCHAR
STARTCHAR Oslash
ENCODING 216
SWIDTH 602 0
DWIDTH 11 0
BBX 11 14 0 0
BITMAP
1f60
3fc0
71c0
61c0
e3e0
e7e0
e6e0
ece0
fce0
f8e0
70c0
71c0
7f80
df00
ENDCHAR
STARTCHAR Ugrave
ENCODING 217
SWIDTH 602 0
DWIDTH 11 0
BBX 9 18 1 0
BITMAP
3800
1c00
0e00
0000
e380
e380
e380
e380
e380
e380
e380
e380
e380
e380
e380
e380
7f00
3e00
ENDCHAR
STARTCHAR Uacute
ENCODING 218
SWIDTH 602 0
DWIDTH 11 0
BBX 9 18 1 0
BITMAP
0e00
1c00
3800
0000
e380
e380
e380
e380
e380
e380
e380
e380
e380
e380
e380
e380
7f00
3e00
ENDCHAR
STARTCHAR Ucircumflex
ENCODING 219
SWIDTH 602 0
DWIDTH 11 0
BBX 9 18 1 0
BITMAP
1800
3c00
6600
0000
e380
e380
e380
e380
e380
e380
e380
e380
e380
e380
e380
e380
7f00
3e00
ENDCHAR
STARTCHAR Udieresis
ENCODING 220
SWIDTH 602 0
DWIDTH 11 0
BBX 9 17 1 0
BITMAP
3600
3600
0000
e380
e380
e380
e380
e380
e380
e380
e380
e380
e380
e380
e380
7f00
3e00
ENDCHAR
STARTCHAR Yacute
ENCODING 221
SWIDTH 602 0
DWIDTH 11 0
BBX 11 18 0 0
BITMAP
0700
0e00
1c00
0000
e060
70c0
70c0
3980
3980
1f00
1f00
0e00
0e00
0e00
0e00
0e00
0e00
0e00
ENDCHAR
STARTCHAR Thorn
ENCODING 222
SWIDTH 602 0
DWIDTH 11 0
BBX 10 14 1 0
BITMAP
e000
e000
ff00
ff80
e1c0
e1c0
e1c0
e1c0
e3c0
ff80
ff00
e000
e000
e000
ENDCHAR
STARTCHAR germandbls
ENCODING 223
SWIDTH 602 0
DWIDTH 11 0
BBX 10 14 1 0
BITMAP
3e00
7f00
e700
e700
e600
ee00
ee00
ef00
e780
e3c0
e1c0
e9c0
efc0
ef80
ENDCHAR
STARTCHAR agrave
ENCODING 224
SWIDTH 602 0
DWIDTH 11 0
BBX 10 14 1 0
BITMAP
3800
1c00
0e00
0000
3f00
7f80
4780
0380
3f80
ff80
e380
e380
ffc0
79c0
ENDCHAR
STARTCHAR aacute
ENCODING 225
SWIDTH 602 0
DWIDTH 11 0
BBX 10 14 1 0
BITMAP
0e00
1c00
3800
0000
3f00
7f80
4780
0380
3f80
ff80
e380
e380
ffc0
79c0
ENDCHAR
STARTCHAR acircumflex
ENCODING 226
SWIDTH 602 0
DWIDTH 11 0
BBX 10 14 1 0
BITMAP
0c00
1e00
3300
0000
3f00
7f80
4780
0380
3f80
ff80
e380
e380
ffc0
79c0
ENDCHAR
STARTCHAR atilde
ENCODING 227
SWIDTH 602 0
DWIDTH 11 0
BBX 10 14 1 0
BITMAP
1b00
3f00
3600
0000
3f00
7f80
4780
0380
3f80
ff80
e380
e380
ffc0
79c0
ENDCHAR
STARTCHAR adieresis
ENCODING 228
SWIDTH 602 0
DWIDTH 11 0
BBX 10 13 1 0
BITMAP
3600
3600
0000
3f00
7f80
4780
0380
3f80
ff80
e380
e380
ffc0
79c0
ENDCHAR
STARTCHAR aring
ENCODING 229
SWIDTH 602 0
DWIDTH 11 0
BBX 10 14 1 0
BITMAP
1c00
1400
1c00
0000
3f00
7f80
4780
0380
3f80
ff80
e380
e380
ffc0
79c0
ENDCHAR
STARTCHAR ae
ENCODING 230
SWIDTH 602 0
DWIDTH 11 0
BBX 10 10 1 0
BITMAP
7b80
7f80
4dc0
0dc0
7fc0
ffc0
ec00
ec40
ffc0
7380
ENDCHAR
STARTCHAR ccedilla
ENCODING 231
SWIDTH 602 0
DWIDTH 11 0
BBX 10 14 1 -4
BITMAP
1fc0
7fc0
7040
e000
e000
e000
e000
7800
3fc0
1fc0
0800
1e00
0600
1c00
ENDCHAR
STARTCHAR egrave
ENCODING 232
SWIDTH 602 0
DWIDTH 11 0
BBX 10 14 1 0
BITMAP
3800
1c00
0e00
0000
1f00
7f80
7180
e1c0
ffc0
ffc0
e000
7040
7fc0
1f80
ENDCHAR
STARTCHAR eacute
ENCODING 233
SWIDTH 602 0
DWIDTH 11 0
BBX 10 14 1 0
BITMAP
0e00
1c00
3800
0000
1f00
7f80
7180
e1c0
ffc0
ffc0
e000
7040
7fc0
1f80
ENDCHAR
STARTCHAR ecircumflex
ENCODING 234
SWIDTH 602 0
DWIDTH 11 0
BBX 10 14 1 0
BITMAP
0c00
1e00
3300
0000
1f00
7f80
7180
e1c0
ffc0
ffc0
e000
7040
7fc0
1f80
ENDCHAR
STARTCHAR edieresis
ENCODING 235
SWIDTH 602 0
DWIDTH 11 0
BBX 10 13 1 0
BITMAP
3600
3600
0000
1f00
7f80
7180
e1c0
ffc0
ffc0
e000
7040
7fc0
1f80
ENDCHAR
STARTCHAR igrave
ENCODING 236
SWIDTH 602 0
DWIDTH 11 0
BBX 7 14 2 0
BITMAP
38
1c
0e
00
fe
fe
0e
0e
0e
0e
0e
0e
0e
0e
ENDCHAR
STARTCHAR iacute
ENCODING 237
SWIDTH 602 0
DWIDTH 11 0
BBX 7 14 2 0
BITMAP
0e
1c
38
00
fe
fe
0e
0e
0e
0e
0e
0e
0e
0e
ENDCHAR
STARTCHAR icircumflex
ENCODING 238
SWIDTH 602 0
DWIDTH 11 0
BBX 7 14 2 0
BITMAP
18
3c
66
00
fe
fe
0e
0e
0e
0e
0e
0e
0e
0e
ENDCHAR
STARTCHAR idieresis
ENCODING 239
SWIDTH 602 0
DWIDTH 11 0
BBX 7 13 2 0
BITMAP
36
36
00
fe
fe
0e
0e
0e
0e
0e
0e
0e
0e
ENDCHAR
STARTCHAR eth
ENCODING 240
SWIDTH 602 0
DWIDTH 11 0
BBX 10 14 1 0
BITMAP
ff00
9e00
1e00
1700
3f80
7f80
73c0
e1c0
e1c0
e1c0
e1c0
7380
7f80
1e00
ENDCHAR
STARTCHAR ntilde
ENCODING 241
SWIDTH 602 0
DWIDTH 11 0
BBX 9 14 1 0
BITMAP
3600
7e00
6c00
0000
ef00
ff80
ff80
f380
e380
e380
e380
e380
e380
e380
ENDCHAR
STARTCHAR ograve
ENCODING 242
SWIDTH 602 0
DWIDTH 11 0
BBX 11 14 0 0
BITMAP
1c00
0e00
0700
0000
1f00
7fc0
71c0
e0e0
e0e0
e0e0
e0e0
71c0
7fc0
1f00
ENDCHAR
STARTCHAR oacute
ENCODING 243
SWIDTH 602 0
DWIDTH 11 0
BBX 11 14 0 0
BITMAP
0700
0e00
1c00
0000
1f00
7fc0
71c0
e0e0
e0e0
e0e0
e0e0
71c0
7fc0
1f00
ENDCHAR
STARTCHAR ocircumflex
ENCODING 244
SWIDTH 602 0
DWIDTH 11 0
BBX 11 14 0 0
BITMAP
0c00
1e00
3300
0000
1f00
7fc0
71c0
e0e0
e0e0
e0e0
e0e0
71c0
7fc0
1f00
ENDCHAR
STARTCHAR otilde
ENCODING 245
SWIDTH 602 0
DWIDTH 11 0
BBX 11 14 0 0
BITMAP
0d80
1f80
1b00
0000
1f00
7fc0
71c0
e0e0
e0e0
e0e0
e0e0
71c0
7fc0
1f00
ENDCHAR
STARTCHAR odieresis
ENCODING 246
SWIDTH 602 0
DWIDTH 11 0
BBX 11 13 0 0
BITMAP
1b00
1b00
0000
1f00
7fc0
71c0
e0e0
e0e0
e0e0
e0e0
71c0
7fc0
1f00
ENDCHAR
STARTCHAR divide
ENCODING 247
SWIDTH 602 0
DWIDTH 11 0
BBX 11 10 0 0
BITMAP
0e00
0e00
0e00
0000
ffe0
ffe0
0000
0e00
0e00
0e00
ENDCHAR
STARTCHAR oslash
ENCODING 248
SWIDTH 602 0
DWIDTH 11 0
BBX 11 10 0 0
BITMAP
1fe0
7fc0
71c0
e3e0
e6e0
ece0
f8e0
71c0
7fc0
ff00
ENDCHAR
STARTCHAR ugrave
ENCODING 249
SWIDTH 602 0
DWIDTH 11 0
BBX 9 14 1 0
BITMAP
3800
1c00
0e00
0000
e380
e380
e380
e380
e380
e380
e780
ff80
ff80
7b80
ENDCHAR
STARTCHAR uacute
ENCODING 250
SWIDTH 602 0
DWIDTH 11 0
BBX 9 14 1 0
BITMAP
0e00
1c00
3800
0000
e380
e380
e380
e380
e380
e380
e780
ff80
ff80
7b80
ENDCHAR
STARTCHAR ucircumflex
ENCODING 251
SWIDTH 602 0
DWIDTH 11 0
BBX 9 14 1 0
BITMAP
0c00
1e00
3300
0000
e380
e380
e380
e380
e380
e380
e780
ff80
ff80
7b80
ENDCHAR
STARTCHAR udieresis
ENCODING 252
SWIDTH 602 0
DWIDTH 11 0
BBX 9 13 1 0
BITMAP
3600
3600
0000
e380
e380
e380
e380
e380
e380
e780
ff80
ff80
7b80
ENDCHAR
STARTCHAR yacute
ENCODING 253
SWIDTH 602 0
DWIDTH 11 0
BBX 11 18 0 -4
BITMAP
0700
0e00
1c00
0000
e060
70c0
70c0
3980
3980
3f80
1f00
1f00
0e00
0e00
0c00
0c00
7800
7000
ENDCHAR
STARTCHAR thorn
ENCODING 254
SWIDTH 602 0
DWIDTH 11 0
BBX 10 18 1 -4
BITMAP
e000
e000
e000
e000
ef00
ff80
ffc0
f3c0
e1c0
e1c0
e1c0
e380
ff80
ef00
e000
e000
e000
e000
ENDCHAR
STARTCHAR ydieresis
ENCODING 255
SWIDTH 602 0
DWIDTH 11 0
BBX 11 17 0 -4
BITMAP
1b00
1b00
0000
e060
70c0
70c0
3980
3980
3f80
1f00
1f00
0e00
0e00
0c00
0c00
7800
7000
ENDCHAR
STARTCHAR uni0400
ENCODING 1024
SWIDTH 602 0
DWIDTH 11 0
BBX 9 18 2 0
BITMAP
3800
1c00
0e00
0000
ff80
ff80
e000
e000
e000
e000
ff00
ff00
e000
e000
e000
e000
ff80
ff80
ENDCHAR
STARTCHAR afii10023
ENCODING 1025
SWIDTH 602 0
DWIDTH 11 0
BBX 9 17 2 0
BITMAP
3600
3600
0000
ff80
ff80
e000
e000
e000
e000
ff00
ff00
e000
e000
e000
e000
ff80
ff80
ENDCHAR
STARTCHAR afii10053
ENCODING 1028
SWIDTH 602 0
DWIDTH 11 0
BBX 11 14 0 0
BITMAP
0FE0
3FE0
7820
7000
E000
E000
FF00
FF00
E000
E000
7000
7820
3FE0
0FC0
ENDCHAR
STARTCHAR afii10054
ENCODING 1029
SWIDTH 602 0
DWIDTH 11 0
BBX 10 14 1 0
BITMAP
3F80
7F80
E080
E000
F000
FC00
3F00
1F80
07C0
01C0
01C0
83C0
FF80
FE00
ENDCHAR
STARTCHAR afii10055
ENCODING 1030
SWIDTH 602 0
DWIDTH 11 0
BBX 9 14 1 0
BITMAP
FF80
FF80
1C00
1C00
1C00
1C00
1C00
1C00
1C00
1C00
1C00
1C00
FF80
FF80
ENDCHAR
STARTCHAR afii10056
ENCODING 1031
SWIDTH 602 0
DWIDTH 11 0
BBX 9 17 1 0
BITMAP
3600
3600
0000
ff80
ff80
1c00
1c00
1c00
1c00
1c00
1c00
1c00
1c00
1c00
1c00
ff80
ff80
ENDCHAR
STARTCHAR afii10057
ENCODING 1032
SWIDTH 602 0
DWIDTH 11 0
BBX 9 14 1 0
BITMAP
7F80
7F80
0380
0380
0380
0380
0380
0380
0380
0380
0380
8780
FF00
FE00
ENDCHAR
STARTCHAR afii10062
ENCODING 1038
SWIDTH 602 0
DWIDTH 11 0
BBX 11 18 0 0
BITMAP
1100
1F00
0E00
0000
E0E0
E0E0
E0E0
71C0
71C0
79C0
3B80
3B80
1F00
1F00
0E00
1E00
7C00
7800
ENDCHAR
STARTCHAR afii10017
ENCODING 1040
SWIDTH 602 0
DWIDTH 11 0
BBX 11 14 0 0
BITMAP
0E00
0F00
0F00
1F00
1F00
1B80
3380
3380
33C0
7FC0
7FC0
61C0
C0E0
C0E0
ENDCHAR
STARTCHAR afii10018
ENCODING 1041
SWIDTH 602 0
DWIDTH 11 0
BBX 10 14 1 0
BITMAP
FFC0
FFC0
E000
E000
E000
E000
FE00
FF80
E3C0
E1C0
E1C0
E3C0
FF80
FF00
ENDCHAR
STARTCHAR afii10019
ENCODING 1042
SWIDTH 602 0
DWIDTH 11 0
BBX 10 14 1 0
BITMAP
FF00
FF80
E380
E380
E380
E700
FE00
FF80
E3C0
E1C0
E1C0
E3C0
FF80
FF00
ENDCHAR
STARTCHAR afii10020
ENCODING 1043
SWIDTH 602 0
DWIDTH 11 0
BBX 9 14 2 0
BITMAP
FF80
FF80
E000
E000
E000
E000
E000
E000
E000
E000
E000
E000
E000
E000
ENDCHAR
STARTCHAR afii10021
ENCODING 1044
SWIDTH 602 0
DWIDTH 11 0
BBX 11 17 0 -3
BITMAP
3FC0
3FC0
39C0
39C0
39C0
39C0
39C0
39C0
39C0
71C0
71C0
71C0
FFE0
FFE0
E0E0
E0E0
E0E0
ENDCHAR
STARTCHAR afii10022
ENCODING 1045
SWIDTH 602 0
DWIDTH 11 0
BBX 9 14 2 0
BITMAP
FF80
FF80
E000
E000
E000
E000
FF00
FF00
E000
E000
E000
E000
FF80
FF80
ENDCHAR
STARTCHAR afii10024
ENCODING 1046
SWIDTH 602 0
DWIDTH 11 0
BBX 11 14 0 0
BITMAP
CE60
CE60
6EC0
6EC0
6EC0
7FC0
3F80
3F80
7FC0
7FC0
6EC0
EEE0
CE60
CE60
ENDCHAR
STARTCHAR afii10025
ENCODING 1047
SWIDTH 602 0
DWIDTH 11 0
BBX 10 14 1 0
BITMAP
FF00
FF80
8380
0380
0380
0700
1E00
1F80
03C0
01C0
01C0
83C0
FF80
7F00
ENDCHAR
STARTCHAR afii10026
ENCODING 1048
SWIDTH 602 0
DWIDTH 11 0
BBX 9 14 1 0
BITMAP
C380
C780
C780
CF80
CF80
DF80
DD80
DD80
F980
F980
F180
F180
E180
E180
ENDCHAR
STARTCHAR afii10027
ENCODING 1049
SWIDTH 602 0
DWIDTH 11 0
BBX 9 18 1 0
BITMAP
2200
3E00
1C00
0000
C380
C780
C780
CF80
CF80
DF80
DD80
DD80
F980
F980
F180
F180
E180
E180
ENDCHAR
STARTCHAR afii10028
ENCODING 1050
SWIDTH 602 0
DWIDTH 11 0
BBX 10 14 1 0
BITMAP
E1C0
E380
E300
E600
EE00
EC00
FC00
FC00
FE00
EF00
E700
E780
E380
E3C0
ENDCHAR
STARTCHAR afii10029
ENCODING 1051
SWIDTH 602 0
DWIDTH 11 0
BBX 10 14 1 0
BITMAP
3FC0
3FC0
39C0
39C0
39C0
39C0
39C0
39C0
39C0
39C0
39C0
71C0
F1C0
E1C0
ENDCHAR
STARTCHAR afii10030
ENCODING 1052
SWIDTH 602 0
DWIDTH 11 0
BBX 10 14 1 0
BITMAP
E3C0
F3C0
F3C0
F3C0
F7C0
F7C0
F7C0
DFC0
DFC0
DDC0
DDC0
DDC0
DDC0
C1C0
ENDCHAR
STARTCHAR afii10031
ENCODING 1053
SWIDTH 602 0
DWIDTH 11 0
BBX 10 14 1 0
BITMAP
E1C0
E1C0
E1C0
E1C0
E1C0
E1C0
FFC0
FFC0
E1C0
E1C0
E1C0
E1C0
E1C0
E1C0
ENDCHAR
STARTCHAR afii10032
ENCODING 1054
SWIDTH 602 0
DWIDTH 11 0
BBX 11 14 0 0
BITMAP
1F00
3F80
71C0
60C0
E0E0
E0E0
E0E0
E0E0
E0E0
E0E0
60C0
71C0
3F80
1F00
ENDCHAR
STARTCHAR afii10033
ENCODING 1055
SWIDTH 602 0
DWIDTH 11 0
BBX 10 14 1 0
BITMAP
FFC0
FFC0
E1C0
E1C0
E1C0
E1C0
E1C0
E1C0
E1C0
E1C0
E1C0
E1C0
E1C0
E1C0
ENDCHAR
STARTCHAR afii10034
ENCODING 1056
SWIDTH 602 0
DWIDTH 11 0
BBX 10 14 1 0
BITMAP
FF00
FF80
E1C0
E1C0
E1C0
E1C0
E3C0
FF80
FF00
E000
E000
E000
E000
E000
ENDCHAR
STARTCHAR afii10035
ENCODING 1057
SWIDTH 602 0
DWIDTH 11 0
BBX 11 14 0 0
BITMAP
0FE0
3FE0
7820
7000
E000
E000
E000
E000
E000
E000
7000
7820
3FE0
0FC0
ENDCHAR
STARTCHAR afii10036
ENCODING 1058
SWIDTH 602 0
DWIDTH 11 0
BBX 11 14 0 0
BITMAP
FFE0
FFE0
0E00
0E00
0E00
0E00
0E00
0E00
0E00
0E00
0E00
0E00
0E00
0E00
ENDCHAR
STARTCHAR afii10037
ENCODING 1059
SWIDTH 602 0
DWIDTH 11 0
BBX 11 14 0 0
BITMAP
E0E0
E0E0
E0E0
71C0
71C0
79C0
3B80
3B80
1F00
1F00
0E00
1E00
7C00
7800
ENDCHAR
STARTCHAR afii10038
ENCODING 1060
SWIDTH 602 0
DWIDTH 11 0
BBX 11 14 0 0
BITMAP
0E00
0E00
3F80
7FC0
6EC0
EEE0
EEE0
EEE0
EEE0
6EC0
7FC0
3F80
0E00
0E00
ENDCHAR
STARTCHAR afii10039
ENCODING 1061
SWIDTH 602 0
DWIDTH 11 0
BBX 11 14 0 0
BITMAP
F0E0
70C0
7980
3B80
3F00
1F00
0E00
0F00
1F00
1F80
3380
73C0
61C0
E1E0
ENDCHAR
STARTCHAR afii10040
ENCODING 1062
SWIDTH 602 0
DWIDTH 11 0
BBX 10 17 1 -3
BITMAP
E380
E380
E380
E380
E380
E380
E380
E380
E380
E380
E380
E380
FFC0
FFC0
01C0
01C0
01C0
ENDCHAR
STARTCHAR afii10041
ENCODING 1063
SWIDTH 602 0
DWIDTH 11 0
BBX 10 14 1 0
BITMAP
E1C0
E1C0
E1C0
E1C0
E1C0
E1C0
E3C0
FFC0
FFC0
7DC0
01C0
01C0
01C0
01C0
ENDCHAR
STARTCHAR afii10042
ENCODING 1064
SWIDTH 602 0
DWIDTH 11 0
BBX 10 14 1 0
BITMAP
EDC0
EDC0
EDC0
EDC0
EDC0
EDC0
EDC0
EDC0
EDC0
EDC0
EDC0
EDC0
FFC0
FFC0
ENDCHAR
STARTCHAR afii10043
ENCODING 1065
SWIDTH 602 0
DWIDTH 11 0
BBX 11 17 0 -3
BITMAP
EDC0
EDC0
EDC0
EDC0
EDC0
EDC0
EDC0
EDC0
EDC0
EDC0
EDC0
EDC0
FFE0
FFE0
00E0
00E0
00E0
ENDCHAR
STARTCHAR afii10044
ENCODING 1066
SWIDTH 602 0
DWIDTH 11 0
BBX 11 14 0 0
BITMAP
F800
F800
3800
3800
3800
3800
3F00
3FC0
39E0
38E0
38E0
39E0
3FC0
3F80
ENDCHAR
STARTCHAR afii10045
ENCODING 1067
SWIDTH 602 0
DWIDTH 11 0
BBX 11 14 0 0
BITMAP
E060
E060
E060
E060
E060
E060
F860
FE60
EF60
E760
E760
EF60
FE60
FC60
ENDCHAR
STARTCHAR afii10046
ENCODING 1068
SWIDTH 602 0
DWIDTH 11 0
BBX 10 14 1 0
BITMAP
E000
E000
E000
E000
E000
E000
FE00
FF80
E3C0
E1C0
E1C0
E3C0
FF80
FF00
ENDCHAR
STARTCHAR afii10047
ENCODING 1069
SWIDTH 602 0
DWIDTH 11 0
BBX 11 14 0 0
BITMAP
FE00
FF80
83C0
01C0
00E0
00E0
1FE0
1FE0
00E0
00E0
01C0
83C0
FF80
7E00
ENDCHAR
STARTCHAR afii10048
ENCODING 1070
SWIDTH 602 0
DWIDTH 11 0
BBX 11 14 0 0
BITMAP
C780
CFC0
CCC0
DCE0
DCE0
DCE0
FCE0
FCE0
DCE0
DCE0
DCE0
CCC0
CFC0
C780
ENDCHAR
STARTCHAR afii10049
ENCODING 1071
SWIDTH 602 0
DWIDTH 11 0
BBX 10 14 1 0
BITMAP
1FC0
3FC0
71C0
71C0
71C0
71C0
39C0
0FC0
1FC0
3DC0
39C0
79C0
71C0
E1C0
ENDCHAR
STARTCHAR afii10065
ENCODING 1072
SWIDTH 602 0
DWIDTH 11 0
BBX 10 10 1 0
BITMAP
3F00
7F80
4780
0380
3F80
FF80
E380
E380
FFC0
79C0
ENDCHAR
STARTCHAR afii10066
ENCODING 1073
SWIDTH 602 0
DWIDTH 11 0
BBX 11 15 0 0
BITMAP
0040
1FC0
3F80
7800
7000
EF00
EFC0
F9C0
F0E0
E0E0
E0E0
E0E0
71C0
7FC0
1F00
ENDCHAR
STARTCHAR afii10067
ENCODING 1074
SWIDTH 602 0
DWIDTH 11 0
BBX 9 10 1 0
BITMAP
FE00
FF00
E700
E700
FE00
FF80
E380
E380
FF80
FF00
ENDCHAR
STARTCHAR afii10068
ENCODING 1075
SWIDTH 602 0
DWIDTH 11 0
BBX 9 10 2 0
BITMAP
FF80
FF80
E000
E000
E000
E000
E000
E000
E000
E000
ENDCHAR
STARTCHAR afii10069
ENCODING 1076
SWIDTH 602 0
DWIDTH 11 0
BBX 11 12 0 -2
BITMAP
3FC0
3FC0
39C0
39C0
39C0
39C0
71C0
71C0
FFE0
FFE0
E0E0
E0E0
ENDCHAR
STARTCHAR afii10070
ENCODING 1077
SWIDTH 602 0
DWIDTH 11 0
BBX 10 10 1 0
BITMAP
1F00
7F80
7180
E1C0
FFC0
FFC0
E000
7040
7FC0
1F80
ENDCHAR
STARTCHAR afii10072
ENCODING 1078
SWIDTH 602 0
DWIDTH 11 0
BBX 11 10 0 0
BITMAP
CE60
CE60
6EC0
6EC0
3F80
7FC0
6EC0
EEE0
EEE0
CE60
ENDCHAR
STARTCHAR afii10073
ENCODING 1079
SWIDTH 602 0
DWIDTH 11 0
BBX 9 10 1 0
BITMAP
FE00
FF00
8700
0700
1E00
1F80
0380
0380
FF80
FF00
ENDCHAR
STARTCHAR afii10074
ENCODING 1080
SWIDTH 602 0
DWIDTH 11 0
BBX 9 10 1 0
BITMAP
C380
C780
C780
CF80
DD80
DD80
F980
F180
F180
E180
ENDCHAR
STARTCHAR afii10075
ENCODING 1081
SWIDTH 602 0
DWIDTH 11 0
BBX 9 14 1 0
BITMAP
2200
3E00
1C00
0000
C380
C780
C780
CF80
DD80
DD80
F980
F180
F180
E180
ENDCHAR
STARTCHAR afii10076
ENCODING 1082
SWIDTH 602 0
DWIDTH 11 0
BBX 10 10 1 0
BITMAP
E380
E700
E600
EC00
FC00
EE00
EF00
E700
E380
E3C0
ENDCHAR
STARTCHAR afii10077
ENCODING 1083
SWIDTH 602 0
DWIDTH 11 0
BBX 10 10 1 0
BITMAP
3FC0
3FC0
39C0
39C0
39C0
39C0
39C0
71C0
F1C0
E1C0
ENDCHAR
STARTCHAR afii10078
ENCODING 1084
SWIDTH 602 0
DWIDTH 11 0
BBX 10 10 1 0
BITMAP
E3C0
F3C0
F7C0
F7C0
F7C0
FFC0
DFC0
DDC0
DDC0
C1C0
ENDCHAR
STARTCHAR afii10079
ENCODING 1085
SWIDTH 602 0
DWIDTH 11 0
BBX 9 10 1 0
BITMAP
E380
E380
E380
E380
FF80
FF80
E380
E380
E380
E380
ENDCHAR
STARTCHAR afii10080
ENCODING 1086
SWIDTH 602 0
DWIDTH 11 0
BBX 11 10 0 0
BITMAP
1F00
7FC0
71C0
E0E0
E0E0
E0E0
E0E0
71C0
7FC0
1F00
ENDCHAR
STARTCHAR afii10081
ENCODING 1087
SWIDTH 602 0
DWIDTH 11 0
BBX 9 10 1 0
BITMAP
FF80
FF80
E380
E380
E380
E380
E380
E380
E380
E380
ENDCHAR
STARTCHAR afii10082
ENCODING 1088
SWIDTH 602 0
DWIDTH 11 0
BBX 10 14 1 -4
BITMAP
EF00
FF80
FFC0
F3C0
E1C0
E1C0
E1C0
E380
FF80
EF00
E000
E000
E000
E000
ENDCHAR
STARTCHAR afii10083
ENCODING 1089
SWIDTH 602 0
DWIDTH 11 0
BBX 10 10 1 0
BITMAP
1FC0
7FC0
7040
E000
E000
E000
E000
7800
3FC0
1FC0
ENDCHAR
STARTCHAR afii10084
ENCODING 1090
SWIDTH 602 0
DWIDTH 11 0
BBX 9 10 1 0
BITMAP
FF80
FF80
1C00
1C00
1C00
1C00
1C00
1C00
1C00
1C00
ENDCHAR
STARTCHAR afii10085
ENCODING 1091
SWIDTH 602 0
DWIDTH 11 0
BBX 11 14 0 -4
BITMAP
E060
70C0
70C0
3980
3980
3F80
1F00
1F00
0E00
0E00
0C00
0C00
7800
7000
ENDCHAR
STARTCHAR afii10086
ENCODING 1092
SWIDTH 602 0
DWIDTH 11 0
BBX 11 18 0 -4
BITMAP
0E00
0E00
0E00
0E00
3F80
7FC0
6EC0
EEE0
EEE0
EEE0
EEE0
6EC0
7FC0
3F80
0E00
0E00
0E00
0E00
ENDCHAR
STARTCHAR afii10087
ENCODING 1093
SWIDTH 602 0
DWIDTH 11 0
BBX 10 10 1 0
BITMAP
F1C0
7B80
3B00
3E00
1E00
1E00
3F00
3780
6380
E3C0
ENDCHAR
STARTCHAR afii10088
ENCODING 1094
SWIDTH 602 0
DWIDTH 11 0
BBX 10 12 1 -2
BITMAP
E380
E380
E380
E380
E380
E380
E380
E380
FFC0
FFC0
01C0
01C0
ENDCHAR
STARTCHAR afii10089
ENCODING 1095
SWIDTH 602 0
DWIDTH 11 0
BBX 9 10 1 0
BITMAP
E380
E380
E380
E780
FF80
FF80
7B80
0380
0380
0380
ENDCHAR
STARTCHAR afii10090
ENCODING 1096
SWIDTH 602 0
DWIDTH 11 0
BBX 11 10 0 0
BITMAP
EEE0
EEE0
EEE0
EEE0
EEE0
EEE0
EEE0
EEE0
FFE0
FFE0
ENDCHAR
STARTCHAR afii10091
ENCODING 1097
SWIDTH 602 0
DWIDTH 11 0
BBX 11 12 0 -2
BITMAP
EDC0
EDC0
EDC0
EDC0
EDC0
EDC0
EDC0
EDC0
FFE0
FFE0
00E0
00E0
ENDCHAR
STARTCHAR afii10092
ENCODING 1098
SWIDTH 602 0
DWIDTH 11 0
BBX 11 10 0 0
BITMAP
F800
F800
3800
3800
3F80
3FC0
38E0
38E0
3FE0
3FC0
ENDCHAR
STARTCHAR afii10093
ENCODING 1099
SWIDTH 602 0
DWIDTH 11 0
BBX 11 10 0 0
BITMAP
E0E0
E0E0
E0E0
E0E0
FCE0
FEE0
E7E0
E7E0
FFE0
FEE0
ENDCHAR
STARTCHAR afii10094
ENCODING 1100
SWIDTH 602 0
DWIDTH 11 0
BBX 9 10 1 0
BITMAP
E000
E000
E000
E000
FE00
FF00
E380
E380
FF80
FF00
ENDCHAR
STARTCHAR afii10095
ENCODING 1101
SWIDTH 602 0
DWIDTH 11 0
BBX 10 10 1 0
BITMAP
FE00
FF80
8380
01C0
1FC0
1FC0
01C0
0780
FF00
FE00
ENDCHAR
STARTCHAR afii10096
ENCODING 1102
SWIDTH 602 0
DWIDTH 11 0
BBX 11 10 0 0
BITMAP
C300
CFC0
CCC0
DCE0
FCE0
FCE0
DCE0
CCC0
CFC0
C300
ENDCHAR
STARTCHAR afii10097
ENCODING 1103
SWIDTH 602 0
DWIDTH 11 0
BBX 10 10 0 0
BITMAP
3FC0
7FC0
71C0
71C0
3FC0
0FC0
39C0
71C0
71C0
E1C0
ENDCHAR
STARTCHAR uni0450
ENCODING 1104
SWIDTH 602 0
DWIDTH 11 0
BBX 10 14 1 0
BITMAP
3800
1c00
0e00
0000
1f00
7f80
7180
e1c0
ffc0
ffc0
e000
7040
7fc0
1f80
ENDCHAR
STARTCHAR afii10071
ENCODING 1105
SWIDTH 602 0
DWIDTH 11 0
BBX 10 13 1 0
BITMAP
3600
3600
0000
1f00
7f80
7180
e1c0
ffc0
ffc0
e000
7040
7fc0
1f80
ENDCHAR
STARTCHAR afii10101
ENCODING 1108
SWIDTH 602 0
DWIDTH 11 0
BBX 10 10 1 0
BITMAP
1FC0
7FC0
7040
E000
FE00
FE00
E000
7800
3FC0
1FC0
ENDCHAR
STARTCHAR afii10102
ENCODING 1109
SWIDTH 602 0
DWIDTH 11 0
BBX 9 10 1 0
BITMAP
3F00
7F00
E100
F800
FF00
3F80
0780
8380
FF00
7E00
ENDCHAR
STARTCHAR afii10103
ENCODING 1110
SWIDTH 602 0
DWIDTH 11 0
BBX 7 14 2 0
BITMAP
0E
0E
0E
00
FE
FE
0E
0E
0E
0E
0E
0E
0E
0E
ENDCHAR
STARTCHAR afii10104
ENCODING 1111
SWIDTH 602 0
DWIDTH 11 0
BBX 7 13 2 0
BITMAP
36
36
00
fe
fe
0e
0e
0e
0e
0e
0e
0e
0e
ENDCHAR
STARTCHAR afii10105
ENCODING 1112
SWIDTH 602 0
DWIDTH 11 0
BBX 8 18 1 -4
BITMAP
07
07
07
00
7F
7F
07
07
07
07
07
07
07
07
07
87
FE
FC
ENDCHAR
STARTCHAR afii10110
ENCODING 1118
SWIDTH 602 0
DWIDTH 11 0
BBX 11 18 0 -4
BITMAP
1100
1F00
0E00
0000
E060
70C0
70C0
3980
3980
3F80
1F00
1F00
0E00
0E00
0C00
0C00
7800
7000
ENDCHAR
STARTCHAR afii10050
ENCODING 1168
SWIDTH 602 0
DWIDTH 11 0
BBX 9 17 2 0
BITMAP
0380
0380
0380
FF80
FF80
E000
E000
E000
E000
E000
E000
E000
E000
E000
E000
E000
E000
ENDCHAR
STARTCHAR afii10098
ENCODING 1169
SWIDTH 602 0
DWIDTH 11 0
BBX 9 12 2 0
BITMAP
0380
0380
FF80
FF80
E000
E000
E000
E000
E000
E000
E000
E000
ENDCHAR
STARTCHAR uni04AA
ENCODING 1194
SWIDTH 602 0
DWIDTH 11 0
BBX 11 18 0 -4
BITMAP
0fe0
3fe0
7820
7000
e000
e000
e000
e000
e000
e000
7000
7820
3fe0
0fc0
0400
0f00
0300
0e00
ENDCHAR
STARTCHAR uni04AB
ENCODING 1195
SWIDTH 602 0
DWIDTH 11 0
BBX 10 14 1 -4
BITMAP
1fc0
7fc0
7040
e000
e000
e000
e000
7800
3fc0
1fc0
0800
1e00
0600
1c00
ENDCHAR
STARTCHAR uni04AE
ENCODING 1198
SWIDTH 602 0
DWIDTH 11 0
BBX 11 14 0 0
BITMAP
E060
70C0
70C0
3980
3980
1F00
1F00
0E00
0E00
0E00
0E00
0E00
0E00
0E00
ENDCHAR
STARTCHAR uni04C0
ENCODING 1216
SWIDTH 602 0
DWIDTH 11 0
BBX 9 14 1 0
BITMAP
FF80
FF80
1C00
1C00
1C00
1C00
1C00
1C00
1C00
1C00
1C00
1C00
FF80
FF80
ENDCHAR
STARTCHAR uni04D2
ENCODING 1234
SWIDTH 602 0
DWIDTH 11 0
BBX 11 17 0 0
BITMAP
1b00
1b00
0000
0e00
0f00
0f00
1f00
1f00
1b80
3380
3380
33c0
7fc0
7fc0
61c0
c0e0
c0e0
ENDCHAR
STARTCHAR uni04D3
ENCODING 1235
SWIDTH 602 0
DWIDTH 11 0
BBX 10 13 1 0
BITMAP
3600
3600
0000
3f00
7f80
4780
0380
3f80
ff80
e380
e380
ffc0
79c0
ENDCHAR
STARTCHAR uni04D4
ENCODING 1236
SWIDTH 602 0
DWIDTH 11 0
BBX 12 14 0 0
BITMAP
07f0
07f0
0780
0f80
0f80
1f80
1bf0
3bf0
3380
3f80
7f80
6380
e3f0
c3f0
ENDCHAR
STARTCHAR uni04D5
ENCODING 1237
SWIDTH 602 0
DWIDTH 11 0
BBX 10 10 1 0
BITMAP
7b80
7f80
4dc0
0dc0
7fc0
ffc0
ec00
ec40
ffc0
7380
ENDCHAR
STARTCHAR uni04E6
ENCODING 1254
SWIDTH 602 0
DWIDTH 11 0
BBX 11 17 0 0
BITMAP
1b00
1b00
0000
1f00
3f80
71c0
60c0
e0e0
e0e0
e0e0
e0e0
e0e0
e0e0
60c0
71c0
3f80
1f00
ENDCHAR
STARTCHAR uni04E7
ENCODING 1255
SWIDTH 602 0
DWIDTH 11 0
BBX 11 13 0 0
BITMAP
1b00
1b00
0000
1f00
7fc0
71c0
e0e0
e0e0
e0e0
e0e0
71c0
7fc0
1f00
ENDCHAR
ENDFONT
